<?xml version="1.0" encoding="utf-8"?>
<!-- Generator: Adobe Illustrator 23.0.0, SVG Export Plug-In . SVG Version: 6.00 Build 0)  -->
<svg version="1.1" id="Layer_1" xmlns="http://www.w3.org/2000/svg" xmlns:xlink="http://www.w3.org/1999/xlink" x="0px" y="0px"
	 viewBox="0 0 100 100" style="enable-background:new 0 0 100 100;" xml:space="preserve">
<style type="text/css">
	.st0{fill:url(#SVGID_1_);}
	.st1{opacity:0.29;fill:url(#SVGID_2_);}
	.st2{opacity:0.3;fill:url(#SVGID_3_);}
	.st3{opacity:0.3;fill:url(#SVGID_4_);}
	.st4{fill:#FEFEFE;}
</style>
<g>
	<linearGradient id="SVGID_1_" gradientUnits="userSpaceOnUse" x1="14.9624" y1="77.5784" x2="93.54" y2="15.7273">
		<stop  offset="0" style="stop-color:#1B47E0"/>
		<stop  offset="0.3603" style="stop-color:#3D88FF"/>
		<stop  offset="1" style="stop-color:#98DAFF"/>
	</linearGradient>
	<path class="st0" d="M68.19,100H31.81C14.24,100,0,85.76,0,68.19V31.81C0,14.24,14.24,0,31.81,0h36.38C85.76,0,100,14.24,100,31.81
		v36.38C100,85.76,85.76,100,68.19,100z"/>
	<radialGradient id="SVGID_2_" cx="72.7583" cy="23.9204" r="38.4284" gradientUnits="userSpaceOnUse">
		<stop  offset="0" style="stop-color:#FFFFFF"/>
		<stop  offset="1" style="stop-color:#FFFFFF;stop-opacity:0.24"/>
	</radialGradient>
	<path class="st1" d="M68.19,100H31.81C14.24,100,0,85.76,0,68.19V31.81C0,14.24,14.24,0,31.81,0h36.38C85.76,0,100,14.24,100,31.81
		v36.38C100,85.76,85.76,100,68.19,100z"/>
	<linearGradient id="SVGID_3_" gradientUnits="userSpaceOnUse" x1="54.9581" y1="19.4219" x2="93.5956" y2="19.4219">
		<stop  offset="0" style="stop-color:#FFFFFF"/>
		<stop  offset="1" style="stop-color:#FFFFFF;stop-opacity:0"/>
	</linearGradient>
	<path class="st2" d="M88.06,33.63c-2.34,0-4.52-1.5-5.27-3.85c-2.59-8.07-10.02-13.49-18.51-13.49h-3.79
		c-3.06,0-5.54-2.48-5.54-5.54s2.48-5.54,5.54-5.54h3.79c13.31,0,24.99,8.51,29.05,21.18c0.93,2.91-0.67,6.03-3.58,6.96
		C89.19,33.54,88.62,33.63,88.06,33.63z"/>
	<linearGradient id="SVGID_4_" gradientUnits="userSpaceOnUse" x1="6.4853" y1="80.7021" x2="45.3971" y2="80.7021">
		<stop  offset="0" style="stop-color:#FFFFFF;stop-opacity:0"/>
		<stop  offset="1" style="stop-color:#FFFFFF"/>
	</linearGradient>
	<path class="st3" d="M39.86,94.78h-4.14c-13.17,0-24.8-8.39-28.95-20.88c-0.96-2.9,0.61-6.03,3.51-7c2.9-0.96,6.03,0.61,7,3.51
		c2.64,7.95,10.06,13.3,18.45,13.3h4.14c3.06,0,5.54,2.48,5.54,5.54S42.92,94.78,39.86,94.78z"/>
	<path class="st4" d="M50.71,21.85c-15.26,0-27.64,11.64-27.64,25.99c0,8.24,4.08,15.57,10.44,20.34v9.35l8.94-4.88
		c2.61,0.77,5.38,1.18,8.26,1.18c15.26,0,27.64-11.64,27.64-25.99C78.35,33.49,65.98,21.85,50.71,21.85z M53.38,56.45l-7.1-7.51
		l-13.05,7.1l14.56-15.36l6.99,7.34l13.34-7.34L53.38,56.45z"/>
</g>
</svg>
